<?xml version="1.0" standalone="no"?>
<!DOCTYPE svg PUBLIC "-//W3C//DTD SVG 20010904//EN"
 "http://www.w3.org/TR/2001/REC-SVG-20010904/DTD/svg10.dtd">
<svg version="1.0" xmlns="http://www.w3.org/2000/svg"
 width="349.000000pt" height="349.000000pt" viewBox="0 0 349.000000 349.000000"
 preserveAspectRatio="xMidYMid meet">
<metadata>
Created by potrace 1.11, written by Peter Selinger 2001-2013
</metadata>
<g transform="translate(0.000000,349.000000) scale(0.100000,-0.100000)"
fill="#000000" stroke="none">
<path d="M1766 3483 c-1 -2 -200 -3 -442 -3 l-439 -1 -60 -28 c-70 -33 -137
-89 -173 -146 -22 -33 -126 -214 -240 -415 -14 -25 -45 -78 -69 -118 -24 -41
-43 -77 -43 -82 0 -5 -3 -10 -7 -12 -5 -1 -16 -19 -27 -38 -10 -19 -74 -132
-142 -251 l-124 -215 0 -423 0 -422 24 -42 c13 -23 32 -58 43 -77 19 -33 117
-202 138 -238 6 -9 34 -60 64 -112 29 -52 60 -103 69 -112 8 -10 11 -18 7 -18
-4 0 -1 -8 7 -17 13 -17 29 -42 80 -131 10 -18 53 -93 95 -165 42 -73 94 -163
116 -202 60 -105 129 -163 233 -194 54 -16 126 -17 904 -15 581 1 860 6 893
13 71 17 126 48 177 100 44 44 67 79 179 276 28 50 56 97 61 105 6 8 15 27 21
42 6 16 15 28 20 28 5 0 9 4 9 9 0 11 233 419 250 439 6 6 9 12 6 12 -2 0 18
37 45 83 l49 82 0 545 c0 424 -3 549 -12 559 -7 6 -13 15 -13 19 0 4 -8 18
-16 32 -17 27 -222 378 -259 445 -12 22 -45 78 -73 125 -27 47 -59 101 -70
120 -83 149 -174 298 -195 322 -47 53 -126 95 -212 115 -23 5 -869 11 -874 6z
m31 -294 c54 -22 88 -37 133 -57 25 -11 50 -21 55 -22 6 0 19 -7 30 -14 11 -7
41 -21 68 -31 26 -10 47 -23 47 -29 0 -6 5 -4 10 4 8 13 10 12 10 -3 0 -10 5
-15 10 -12 6 3 10 1 10 -5 0 -6 5 -8 12 -4 6 4 17 -1 25 -11 7 -11 13 -16 13
-11 0 10 99 -44 355 -194 90 -53 104 -63 99 -72 -3 -5 2 -8 12 -6 11 2 18 -2
17 -9 -2 -7 3 -10 11 -7 7 3 20 -2 29 -10 9 -9 21 -16 28 -16 7 0 9 -3 6 -6
-4 -4 15 -20 41 -37 26 -16 49 -33 50 -38 2 -5 10 -9 18 -9 8 0 14 -8 14 -17
0 -15 2 -16 10 -3 8 13 10 12 10 -3 0 -10 5 -15 10 -12 6 3 10 2 10 -2 0 -5
12 -16 28 -25 76 -45 87 -65 97 -173 2 -22 4 -40 5 -40 1 0 4 -18 5 -40 7 -77
15 -170 20 -210 2 -22 4 -175 4 -340 -1 -165 0 -315 0 -333 1 -24 -2 -31 -11
-26 -9 5 -9 3 1 -9 7 -9 10 -17 5 -17 -5 0 -9 -26 -9 -58 0 -31 -2 -61 -4 -67
-3 -5 -6 -25 -8 -45 -3 -42 -11 -115 -13 -115 -1 0 -3 -7 -5 -16 -3 -19 -33
-52 -56 -62 -32 -15 -107 -75 -102 -81 4 -3 1 -6 -5 -6 -14 0 -113 -67 -124
-84 -4 -6 -8 -7 -8 -2 0 6 -6 2 -12 -7 -11 -13 -400 -247 -413 -247 -1 0 -33
-18 -69 -40 -36 -22 -70 -40 -76 -40 -5 0 -10 -5 -10 -11 0 -6 -7 -9 -15 -5
-8 3 -15 2 -15 -2 0 -4 -15 -13 -32 -21 -18 -7 -61 -26 -96 -42 -35 -16 -67
-29 -72 -29 -6 0 -10 -4 -10 -10 0 -5 -7 -7 -15 -4 -8 4 -15 1 -15 -5 0 -6 -8
-11 -18 -11 -10 0 -28 -7 -40 -16 -32 -22 -83 -25 -106 -5 -11 9 -16 10 -12 4
5 -9 2 -11 -8 -7 -9 3 -16 10 -16 15 0 5 -3 8 -7 7 -12 -4 -147 55 -155 67 -4
5 -8 6 -8 2 0 -5 -15 1 -33 12 -19 11 -37 18 -40 14 -4 -3 -7 -1 -7 5 0 7 -9
12 -20 12 -11 0 -20 5 -20 11 0 5 -4 8 -9 4 -5 -3 -12 -1 -16 5 -4 6 -11 8
-16 5 -5 -4 -9 -1 -9 4 0 6 -7 11 -15 11 -8 0 -15 5 -15 11 0 5 -4 8 -8 5 -5
-3 -76 34 -158 81 -82 47 -165 94 -184 105 -19 11 -47 29 -62 39 -14 11 -30
19 -36 19 -5 0 -17 10 -26 22 -9 13 -14 16 -11 8 4 -8 -1 -6 -10 5 -9 11 -19
20 -23 20 -4 0 -6 3 -5 7 2 4 -5 4 -14 1 -11 -4 -14 -3 -9 5 4 7 1 12 -9 12
-8 0 -23 9 -32 20 -10 11 -21 20 -26 20 -5 0 -20 9 -33 19 l-25 20 28 3 c15 2
100 2 189 0 l161 -3 22 -40 c12 -21 26 -37 31 -34 4 3 7 -3 6 -13 0 -10 5 -16
13 -14 8 2 11 -3 8 -12 -3 -8 1 -20 9 -26 8 -7 14 -18 14 -25 0 -6 9 -20 20
-30 11 -10 20 -24 20 -32 0 -7 5 -13 10 -14 36 -4 57 -2 69 6 8 4 12 4 8 -1
-7 -12 493 -11 512 0 9 6 12 5 8 -1 -4 -6 20 -9 63 -8 66 2 75 -1 71 -28 -2
-13 63 -47 85 -44 26 3 72 38 76 57 2 8 7 18 12 22 11 8 -16 85 -28 78 -4 -3
-12 2 -17 11 -14 27 -80 23 -113 -7 -14 -14 -24 -29 -21 -35 7 -10 1 -11 -77
-10 -40 1 -58 -3 -58 -12 0 -9 -2 -9 -8 0 -11 17 -158 12 -154 -5 1 -8 -2 -11
-8 -7 -6 3 -8 10 -5 14 2 5 -25 9 -60 10 -47 1 -65 -2 -65 -11 0 -10 -2 -10
-8 -1 -6 9 -43 12 -130 12 -67 -1 -120 -4 -117 -8 2 -4 -2 -8 -10 -8 -7 0 -12
8 -10 19 2 10 -2 21 -10 25 -7 5 -14 10 -14 13 0 17 -15 40 -27 40 -8 0 -13 3
-12 7 5 15 -24 73 -33 67 -5 -3 -9 4 -9 16 0 12 -5 18 -10 15 -5 -3 -10 -2
-10 3 0 5 8 12 18 16 9 3 24 9 32 12 13 5 13 4 0 -5 -13 -10 -13 -11 0 -12 8
-1 19 -1 23 0 5 1 6 -3 2 -9 -3 -5 10 -34 29 -62 l35 -53 270 1 c212 1 271 -2
271 -12 0 -16 50 -55 61 -48 5 3 9 1 9 -5 0 -14 73 12 78 29 3 9 0 10 -9 4
-11 -6 -12 -5 -2 8 7 8 9 19 5 23 -4 5 -1 5 6 1 7 -4 10 -12 7 -17 -4 -5 -2
-9 3 -9 6 0 13 12 16 26 7 28 -1 84 -12 84 -4 0 -20 10 -35 23 l-28 22 33 -2
c18 -1 47 -2 64 -2 23 -1 34 -8 42 -26 11 -24 56 -51 77 -46 6 2 15 4 20 5 20
4 57 28 51 33 -3 3 2 12 12 20 9 8 12 12 5 9 -6 -4 -14 -2 -18 4 -4 6 -11 7
-17 4 -7 -5 -8 -2 -3 5 5 9 11 9 17 3 6 -6 17 -8 25 -5 11 4 10 8 -4 20 -10 8
-13 12 -6 9 6 -4 14 -2 18 4 6 10 -8 15 -30 10 -5 -1 -5 4 2 11 9 9 9 15 -2
25 -7 8 -18 14 -23 14 -6 0 -13 6 -15 13 -4 9 -8 8 -16 -3 -7 -10 -11 -11 -11
-2 0 6 -5 12 -11 12 -5 0 -7 -6 -3 -12 5 -9 3 -9 -9 1 -14 11 -18 11 -23 -3
-3 -9 -9 -14 -13 -12 -6 4 -38 -26 -33 -31 12 -14 -13 -19 -99 -18 -55 0 -103
-3 -106 -8 -2 -4 -10 -4 -16 0 -16 10 -97 10 -104 1 -2 -5 -10 -5 -16 -1 -16
10 -97 10 -104 1 -2 -5 -10 -5 -16 -1 -16 10 -97 10 -104 1 -2 -5 -10 -5 -16
-1 -16 10 -97 10 -104 1 -2 -5 -10 -5 -16 -1 -16 10 -97 10 -104 1 -2 -5 -10
-5 -16 -1 -16 10 -97 10 -104 1 -2 -5 -10 -5 -16 -1 -16 10 -97 10 -104 1 -2
-5 -10 -5 -16 -1 -16 10 -97 10 -104 1 -2 -5 -10 -5 -16 -1 -7 4 -50 8 -97 9
-123 2 -123 2 -153 29 -15 14 -27 23 -27 20 0 -4 -7 0 -15 9 -21 21 -19 26 11
26 16 0 23 4 18 12 -5 7 -3 8 7 2 8 -4 38 -10 68 -12 42 -3 51 -1 45 10 -6 10
-5 10 7 2 20 -16 122 -17 112 -1 -5 9 -3 9 8 1 21 -16 175 -12 171 4 -1 8 2
11 8 7 6 -3 8 -10 6 -14 -3 -4 8 -8 25 -9 19 0 27 3 23 10 -5 7 -2 8 7 2 8 -4
38 -10 68 -12 42 -3 51 -1 45 10 -6 10 -5 10 7 2 20 -16 122 -17 112 -1 -5 9
-3 9 8 1 21 -16 175 -12 171 4 -1 8 2 11 8 7 6 -3 8 -10 6 -14 -3 -4 8 -8 25
-9 19 0 27 3 23 10 -5 7 -2 8 7 2 8 -4 38 -10 68 -12 42 -3 51 -1 45 10 -6 10
-5 10 7 2 20 -16 122 -17 112 -1 -5 9 -3 9 8 1 21 -16 175 -12 171 4 -1 8 2
11 8 7 6 -3 8 -10 6 -14 -3 -4 8 -8 25 -9 19 0 27 3 23 10 -5 7 -2 8 7 2 8 -4
38 -10 68 -12 42 -3 51 -1 45 10 -6 10 -5 10 7 2 20 -16 122 -17 112 -1 -4 8
-1 7 10 -1 9 -8 21 -11 27 -7 5 3 13 -2 17 -12 12 -32 53 -63 84 -63 16 0 29
5 29 10 0 6 3 9 8 9 23 -4 33 5 51 43 17 38 17 44 4 65 -8 12 -20 20 -26 16
-5 -3 -7 -1 -4 4 4 6 -1 17 -11 26 -37 33 -140 -2 -129 -44 3 -13 0 -16 -11
-12 -11 5 -13 3 -7 -8 7 -11 6 -12 -6 -3 -16 13 -97 13 -118 0 -9 -6 -12 -5
-8 1 8 12 -92 11 -112 -1 -8 -6 -12 -5 -8 0 3 5 -28 9 -73 10 -47 0 -76 -4
-73 -10 4 -5 1 -6 -8 0 -21 13 -80 14 -72 0 5 -8 3 -8 -8 0 -16 13 -97 13
-118 0 -9 -6 -12 -5 -8 1 8 12 -92 11 -112 -1 -8 -6 -12 -5 -8 0 3 5 -28 9
-73 10 -47 0 -76 -4 -73 -10 4 -5 1 -6 -8 0 -21 13 -80 14 -72 0 5 -8 3 -8 -8
0 -16 13 -97 13 -118 0 -9 -6 -12 -5 -8 1 8 12 -92 11 -112 -1 -8 -6 -12 -5
-8 0 3 5 -28 9 -73 10 -47 0 -76 -4 -73 -10 4 -5 1 -6 -8 0 -21 13 -80 14 -72
0 5 -8 3 -8 -8 0 -16 13 -97 13 -118 0 -9 -6 -12 -5 -8 1 8 12 -92 11 -112 -1
-9 -6 -12 -5 -8 1 4 6 -12 9 -41 9 -43 -1 -47 1 -48 24 -1 14 -2 27 -4 30 -1
3 -3 23 -5 45 -2 22 -7 72 -11 110 -3 39 -7 84 -7 100 -1 17 -5 33 -10 36 -5
4 -4 15 2 26 5 11 7 24 3 28 -10 10 -9 585 1 592 4 2 3 11 -3 18 -8 10 -8 15
0 20 8 5 7 11 -2 23 -8 9 -8 13 -1 9 7 -5 11 4 12 26 2 74 9 136 16 148 6 8 4
10 -5 4 -9 -5 -11 -4 -6 4 8 12 14 41 20 98 2 16 4 31 5 34 2 13 38 47 81 76
25 17 55 40 66 51 12 12 25 18 28 15 3 -4 6 -1 6 5 0 6 8 13 18 16 9 3 29 17
45 31 15 14 27 23 27 19 0 -4 9 3 20 16 11 13 20 19 20 14 0 -5 4 -4 8 1 7 10
50 40 87 61 11 6 103 59 205 118 272 159 270 158 270 149 0 -4 5 0 11 9 5 10
25 20 44 24 19 3 32 10 29 15 -3 5 2 6 10 3 10 -4 16 -1 16 7 0 7 3 10 6 6 3
-3 29 7 57 21 29 15 54 27 57 28 3 1 15 5 26 9 12 3 43 17 70 30 59 28 56 28
91 14z m570 -2064 c0 -8 -4 -12 -9 -9 -5 3 -6 10 -3 15 9 13 12 11 12 -6z m43
1 c0 -2 -8 -10 -17 -17 -16 -13 -17 -12 -4 4 13 16 21 21 21 13z m-70 -52 c0
-8 -19 -13 -24 -6 -3 5 1 9 9 9 8 0 15 -2 15 -3z m-1595 -24 c3 -5 1 -10 -4
-10 -6 0 -11 5 -11 10 0 6 2 10 4 10 3 0 8 -4 11 -10z m480 0 c3 -5 1 -10 -4
-10 -6 0 -11 5 -11 10 0 6 2 10 4 10 3 0 8 -4 11 -10z m480 0 c3 -5 1 -10 -4
-10 -6 0 -11 5 -11 10 0 6 2 10 4 10 3 0 8 -4 11 -10z m480 0 c3 -5 1 -10 -4
-10 -6 0 -11 5 -11 10 0 6 2 10 4 10 3 0 8 -4 11 -10z m203 -45 c-3 -3 -9 2
-12 12 -6 14 -5 15 5 6 7 -7 10 -15 7 -18z m-24 7 c3 -5 -1 -9 -9 -9 -8 0 -12
4 -9 9 3 4 7 8 9 8 2 0 6 -4 9 -8z m-339 -81 c3 -5 2 -12 -3 -15 -5 -3 -9 1
-9 9 0 17 3 19 12 6z m-191 -36 c-4 -8 -10 -12 -15 -10 -10 7 -44 -30 -44 -48
0 -7 -18 -13 -45 -15 -24 -2 -51 -9 -59 -15 -11 -9 -13 -9 -8 0 5 8 -7 11 -40
11 -27 0 -54 -5 -62 -11 -12 -9 -13 -9 -7 1 5 9 -2 12 -26 12 -19 0 -40 -6
-47 -12 -11 -10 -13 -10 -7 0 11 19 -35 15 -50 -5 -13 -17 -14 -17 -8 0 5 15
-1 17 -43 17 -27 0 -55 -6 -62 -12 -11 -10 -13 -10 -7 0 5 8 -2 12 -23 12 -16
0 -33 5 -37 11 -4 8 -9 7 -16 -2 -7 -10 -8 -8 -4 7 4 13 -1 28 -14 42 l-21 22
323 3 c178 1 324 3 325 5 1 1 0 -5 -3 -13z m212 -7 c3 -4 -1 -5 -10 -4 -8 1
-18 5 -22 8 -3 4 1 5 10 4 8 -1 18 -5 22 -8z m85 -15 c13 -16 12 -17 -3 -4
-17 13 -22 21 -14 21 2 0 10 -8 17 -17z m-46 -12 c3 -5 2 -12 -3 -15 -5 -3 -9
1 -9 9 0 17 3 19 12 6z m-175 -31 c0 -5 -5 -10 -11 -10 -5 0 -7 5 -4 10 3 6 8
10 11 10 2 0 4 -4 4 -10z m25 -40 c3 -6 -1 -7 -9 -4 -18 7 -21 14 -7 14 6 0
13 -4 16 -10z m-45 -44 c0 -2 -6 -9 -14 -15 -11 -9 -16 -9 -22 0 -4 7 -3 9 4
5 6 -3 13 -2 17 4 6 10 15 14 15 6z m85 -16 c-3 -5 -12 -10 -18 -10 -7 0 -6 4
3 10 19 12 23 12 15 0z m49 -6 c3 -8 2 -12 -4 -9 -6 3 -10 10 -10 16 0 14 7
11 14 -7z m-51 -31 c3 -5 -6 -9 -20 -10 -19 -1 -22 1 -12 8 17 11 26 11 32 2z
m42 -43 c-3 -5 -12 -10 -18 -10 -7 0 -6 4 3 10 19 12 23 12 15 0z m-45 -20 c0
-5 -5 -10 -11 -10 -5 0 -7 5 -4 10 3 6 8 10 11 10 2 0 4 -4 4 -10z m85 0 c-3
-5 -12 -10 -18 -10 -7 0 -6 4 3 10 19 12 23 12 15 0z"/>
<path d="M652 2292 c-18 -3 -21 -6 -12 -17 8 -10 8 -15 0 -20 -8 -5 -8 -10 0
-20 8 -9 8 -15 0 -20 -6 -3 -8 -11 -4 -16 3 -5 11 -6 17 -2 7 4 5 -1 -3 -12
-17 -21 -20 -57 -5 -67 6 -5 5 -8 -3 -8 -9 0 -10 -5 -3 -19 6 -10 7 -21 4 -25
-11 -10 -12 -37 -2 -30 5 3 9 -1 9 -9 0 -11 19 -13 85 -13 78 1 85 -1 94 -21
7 -15 7 -24 0 -29 -7 -4 -6 -10 1 -19 8 -10 8 -15 0 -20 -8 -5 -8 -11 -1 -19
6 -7 8 -15 5 -19 -11 -11 -11 -57 0 -50 6 4 6 1 -1 -8 -8 -10 -9 -19 -3 -25 6
-6 2 -10 -11 -11 -12 -1 -23 -4 -25 -6 -4 -4 -8 -105 -5 -142 2 -26 51 -51 63
-32 5 7 8 8 8 1 0 -8 34 -11 105 -11 71 0 102 4 98 11 -3 6 0 5 8 -1 30 -29
37 -14 36 77 0 61 -4 89 -11 87 -6 -3 -17 2 -24 9 -7 8 -10 14 -6 14 3 0 0 8
-7 17 -8 9 -9 14 -2 10 8 -5 11 15 10 73 0 54 -4 77 -11 73 -6 -4 -5 1 2 10 8
9 11 20 8 25 -3 6 35 7 93 5 l99 -5 -2 60 c-2 59 -1 59 23 52 22 -5 26 -12 26
-46 0 -21 4 -44 8 -51 4 -6 4 -14 0 -16 -5 -3 -8 -54 -7 -114 l0 -110 -24 3
c-13 1 -21 0 -18 -3 3 -3 1 -14 -5 -24 -5 -11 -6 -19 -2 -19 5 0 8 -21 6 -47
-4 -72 3 -90 32 -90 13 0 23 3 20 7 -2 3 2 7 10 7 8 0 12 -4 10 -7 -3 -4 13
-8 35 -8 24 -1 40 4 40 11 0 8 3 9 8 1 10 -15 145 -15 154 -1 6 9 8 9 8 0 0
-16 158 -15 179 1 11 8 13 8 7 -1 -4 -8 -1 -13 8 -13 12 0 16 11 16 46 0 27
-4 43 -10 39 -5 -3 -10 -1 -10 4 0 6 5 11 10 11 15 0 12 47 -2 53 -7 3 -2 6
12 6 20 1 22 3 10 11 -9 6 -14 21 -12 43 2 20 -2 38 -9 43 -8 5 -10 3 -4 -7 7
-11 6 -12 -6 -2 -9 7 -50 12 -103 12 -75 0 -87 -2 -82 -15 3 -8 2 -12 -4 -9
-6 3 -10 2 -10 -4 0 -5 5 -13 10 -16 16 -10 1 -25 -25 -25 -25 0 -33 17 -27
60 3 24 7 25 70 25 64 0 67 1 68 25 1 14 -3 31 -10 39 -8 11 -8 13 1 7 10 -5
12 3 11 33 -1 22 -4 44 -7 49 -10 14 -41 22 -41 11 0 -6 -6 -7 -12 -3 -7 5
-27 7 -45 5 -33 -3 -35 0 -35 39 0 39 2 42 20 35 9 -4 23 -8 29 -8 9 0 10 -4
3 -12 -17 -21 16 -38 75 -39 30 -1 55 3 55 8 0 6 4 6 11 -1 13 -13 60 -5 58
11 -1 6 -1 25 0 43 1 26 4 30 22 26 16 -4 17 -8 7 -14 -7 -5 -9 -9 -4 -9 5 0
2 -8 -5 -17 -8 -9 -9 -14 -3 -10 6 3 11 0 11 -8 0 -8 -4 -12 -9 -9 -4 3 -5 -2
-2 -10 3 -9 9 -14 13 -12 4 3 8 -5 8 -17 2 -17 0 -19 -7 -7 -9 13 -10 13 -10
-1 0 -8 6 -21 13 -28 8 -10 8 -12 0 -7 -6 3 -14 2 -18 -4 -3 -5 0 -10 7 -10 9
0 9 -3 -2 -10 -12 -7 -12 -10 -1 -10 7 0 11 -6 7 -15 -3 -8 0 -15 6 -15 7 0 3
-7 -8 -16 -17 -14 -17 -15 -1 -10 13 4 16 2 10 -7 -13 -21 -14 -50 -1 -59 10
-6 10 -8 -1 -8 -8 0 -11 -7 -8 -20 3 -11 0 -20 -6 -20 -6 0 -3 -6 8 -13 13
-10 15 -16 6 -21 -15 -9 -4 -28 12 -20 7 3 3 -1 -7 -10 -17 -14 -17 -16 -3
-22 9 -3 14 -10 11 -15 -3 -5 0 -9 7 -9 7 0 10 -3 6 -6 -7 -8 8 -24 46 -49 32
-20 162 -32 151 -13 -5 7 -2 8 7 2 24 -14 51 -16 43 -2 -6 10 -4 10 7 2 19
-15 99 -15 99 0 0 7 3 7 8 1 8 -11 85 -18 78 -7 -2 4 7 8 21 9 19 1 22 -1 12
-8 -9 -6 8 -9 51 -7 36 1 71 7 79 12 10 7 13 7 9 1 -4 -7 12 -11 43 -13 37 -1
48 2 43 11 -5 9 -3 9 7 0 7 -7 17 -13 21 -13 4 0 8 59 8 130 0 117 2 130 18
130 9 0 24 -5 32 -11 13 -9 13 -10 -1 -6 -14 5 -15 0 -9 -29 5 -21 4 -34 -2
-34 -6 0 -6 -5 1 -14 9 -11 9 -15 -1 -19 -8 -4 -7 -6 5 -6 9 -1 17 -6 17 -12
0 -5 -5 -7 -12 -3 -8 5 -9 2 -5 -9 3 -10 3 -17 -1 -17 -12 0 -1 -72 12 -85 15
-14 78 -17 70 -3 -5 7 -2 8 7 2 22 -14 89 -14 89 -1 0 8 3 8 9 -1 9 -14 32
-13 43 3 5 6 8 5 8 -2 0 -14 39 -18 41 -5 4 21 5 149 1 159 -2 6 -14 14 -26
17 -19 5 -22 11 -19 46 2 24 -1 39 -6 35 -5 -3 -13 -1 -16 5 -4 6 -1 9 7 8 8
-2 13 10 15 35 1 21 -2 35 -7 32 -5 -3 -12 -1 -15 5 -4 6 -1 9 6 8 8 -2 14 11
16 35 3 29 0 37 -9 31 -10 -6 -10 -5 -1 7 6 8 10 29 9 47 -1 17 3 33 8 33 6 1
18 2 25 3 12 1 15 19 16 84 1 46 -2 85 -7 88 -6 4 -209 6 -261 2 -10 -1 -16
-7 -13 -15 3 -7 1 -13 -5 -13 -6 0 -3 -10 5 -22 20 -29 21 -48 1 -22 -14 18
-15 17 -6 -8 6 -16 6 -28 1 -30 -5 -2 -6 -19 -1 -40 6 -25 5 -38 -1 -38 -6 0
-4 -7 3 -16 15 -19 21 -47 8 -39 -5 3 -18 1 -29 -5 -20 -10 -20 -8 -20 120 l0
130 -32 1 c-18 0 -82 0 -143 -1 -60 -1 -117 -1 -125 0 -67 3 -350 1 -370 -3
-14 -3 -29 -6 -33 -6 -5 -1 -5 -6 -2 -11 4 -6 3 -10 -2 -9 -23 4 -34 -4 -44
-28 -12 -32 -11 -39 3 -35 5 1 7 -2 3 -8 -3 -6 -11 -8 -16 -5 -5 4 -9 2 -9 -4
0 -5 5 -11 12 -13 8 -3 7 -6 -3 -10 -9 -3 -22 -2 -29 2 -11 7 -11 11 -1 24 9
10 10 16 2 16 -7 0 -8 8 -1 24 6 16 5 27 -3 35 -9 9 -8 14 3 21 18 12 24 12
-275 10 -254 -1 -275 -1 -356 0 -31 1 -60 0 -65 -1 -5 -1 -13 0 -19 1 -10 2
-128 1 -143 -1 -4 -1 -9 -1 -12 0 -10 4 -235 6 -258 3z m1658 -67 c0 -2 -9 -3
-19 -2 -11 0 -18 5 -15 9 4 6 34 0 34 -7z m-1047 -40 c4 -8 3 -16 -1 -19 -4
-3 -9 4 -9 15 -2 23 3 25 10 4z m1041 3 c-3 -4 -11 -5 -19 -1 -21 7 -19 12 4
10 11 0 18 -5 15 -9z m3 -63 c8 -8 19 -12 25 -9 6 4 8 2 4 -4 -3 -5 0 -13 6
-15 10 -4 9 -8 -2 -16 -9 -7 -11 -14 -5 -18 6 -5 10 -15 10 -23 0 -8 -4 -19
-10 -23 -6 -6 -5 -10 4 -14 11 -5 11 -7 0 -14 -12 -7 -12 -9 0 -9 11 0 11 -3
1 -15 -9 -11 -9 -15 -1 -15 9 0 9 -5 1 -20 -7 -13 -7 -20 -1 -20 7 0 7 -9 1
-25 -6 -16 -6 -25 1 -25 6 0 6 -7 -1 -20 -8 -15 -8 -20 2 -20 9 0 9 -3 -2 -10
-11 -7 -11 -10 -2 -10 7 0 11 -4 8 -9 -3 -4 -16 -6 -29 -4 -18 4 -23 10 -21
29 1 13 -3 24 -9 24 -7 0 -6 4 3 10 17 11 9 20 -32 38 -16 6 -28 8 -28 4 0
-12 -64 -9 -72 3 -5 7 -8 6 -8 -1 0 -5 -18 -9 -40 -8 -34 1 -40 -2 -41 -20 0
-11 -2 -31 -3 -43 -1 -12 0 -20 4 -18 4 2 7 -1 7 -8 0 -7 -10 -12 -23 -12 -17
0 -22 5 -20 23 2 12 6 25 9 28 3 4 3 14 -2 23 -6 14 -7 87 -1 101 1 3 1 10 0
15 -7 29 -5 105 3 105 5 0 4 6 -2 13 -12 15 -5 27 16 27 8 0 11 -4 8 -10 -3
-5 2 -10 12 -11 10 0 13 -3 6 -6 -7 -2 -13 -14 -13 -24 0 -11 4 -18 9 -14 5 3
12 1 15 -4 3 -5 49 -9 101 -9 l95 -1 -3 50 c-1 27 -1 49 1 49 2 0 10 -7 19
-15z m-217 -295 c0 -5 -2 -10 -4 -10 -3 0 -8 5 -11 10 -3 6 -1 10 4 10 6 0 11
-4 11 -10z m-1286 -166 c3 -8 2 -12 -4 -9 -6 3 -10 10 -10 16 0 14 7 11 14 -7z"/>
<path d="M694 1582 c-18 -3 -22 -10 -22 -38 0 -23 8 -42 22 -56 11 -12 15 -17
7 -13 -10 5 -12 3 -7 -11 12 -40 14 -74 5 -69 -11 8 -11 3 0 -28 7 -19 6 -29
-7 -43 -11 -12 -17 -35 -17 -59 0 -37 2 -40 33 -42 24 -2 31 1 26 10 -6 9 -4
9 7 1 18 -15 64 -13 65 4 1 6 2 39 3 72 1 58 2 59 19 43 11 -10 17 -21 15 -25
-2 -3 4 -13 12 -21 8 -9 15 -20 15 -26 0 -22 18 -19 31 7 29 57 41 71 56 65
13 -5 13 -7 1 -14 -10 -6 -14 -22 -12 -55 2 -25 5 -49 8 -52 3 -3 36 -6 73 -8
45 -2 63 0 53 6 -13 8 -12 10 3 10 9 0 17 -3 17 -7 0 -5 34 -9 75 -9 41 -1 72
2 69 7 -3 5 0 9 5 9 6 0 11 -4 11 -8 0 -4 29 -8 63 -8 l64 0 2 55 c1 31 6 59
11 64 6 4 8 4 6 1 -7 -9 15 -64 26 -64 5 0 6 -4 3 -10 -3 -5 -1 -10 5 -10 6 0
9 -4 6 -8 -3 -5 6 -15 20 -23 22 -11 27 -11 34 1 6 8 10 10 10 5 0 -6 13 -12
29 -13 33 -2 42 15 30 60 -4 15 -3 30 2 34 5 3 6 10 3 16 -4 6 -6 36 -5 66 1
48 0 54 -16 48 -17 -6 -17 -5 0 8 9 7 17 18 17 25 0 16 37 13 44 -4 3 -8 0
-15 -7 -15 -8 0 -6 -4 3 -10 8 -5 10 -10 4 -10 -8 0 -9 -11 -4 -34 4 -19 3
-41 -3 -51 -5 -10 -5 -15 0 -12 5 3 9 -3 9 -13 0 -10 -6 -16 -12 -13 -7 2 -11
-6 -11 -21 0 -14 5 -26 11 -26 6 0 5 -4 -3 -9 -12 -8 -12 -11 0 -23 17 -17 99
-20 118 -5 12 9 13 9 7 0 -4 -8 -2 -13 8 -13 8 0 17 6 20 13 5 10 7 10 12 0 3
-7 12 -13 20 -13 8 0 14 6 14 13 0 7 3 8 8 2 11 -16 44 -18 53 -3 5 7 9 8 9 3
0 -6 22 -12 50 -12 40 -2 55 3 75 21 19 18 22 25 12 36 -9 10 -9 11 1 6 8 -5
12 0 12 14 0 14 -4 19 -12 14 -10 -6 -10 -5 -2 7 16 19 9 86 -11 105 -8 8 -40
18 -70 21 -30 3 -55 10 -55 15 0 5 -4 6 -10 3 -5 -3 -10 -4 -10 -1 0 3 10 10
22 17 18 10 20 9 15 -5 -4 -9 -3 -15 1 -15 4 1 33 1 64 0 40 -1 57 -5 55 -13
-1 -9 8 -12 27 -9 16 1 39 -3 52 -10 19 -10 21 -15 12 -26 -9 -11 -9 -16 1
-23 11 -6 11 -9 0 -13 -12 -5 -12 -6 0 -6 11 -1 11 -4 0 -18 -12 -14 -12 -16
1 -9 9 4 8 2 -2 -7 -10 -8 -15 -17 -11 -20 3 -4 1 -7 -6 -7 -9 0 -9 -5 0 -21
8 -15 8 -19 0 -15 -8 5 -8 1 0 -16 10 -22 16 -24 87 -23 l77 0 2 43 c2 23 -2
42 -7 42 -6 0 -10 8 -10 18 0 15 -2 15 -11 2 -9 -12 -9 -11 -3 5 4 11 8 34 9
50 1 17 3 35 4 41 0 7 23 12 56 12 49 0 55 -3 50 -18 -3 -10 -1 -22 6 -25 8
-6 8 -10 -2 -15 -10 -7 -10 -12 0 -23 10 -13 8 -18 -11 -31 -15 -11 -17 -16
-8 -16 12 0 12 -2 2 -9 -8 -4 -14 -12 -14 -16 0 -4 6 -12 14 -16 10 -7 10 -9
0 -9 -10 0 -10 -4 0 -20 7 -11 23 -20 36 -20 16 0 21 4 16 13 -6 9 -5 9 7 0
11 -9 19 -9 26 -2 8 8 13 8 17 0 11 -17 39 -13 32 5 -4 10 -2 13 6 8 8 -5 9
-1 4 12 -12 31 -12 36 5 39 9 2 16 -3 16 -11 0 -7 -4 -11 -9 -8 -13 8 -10 -6
5 -20 33 -34 91 -47 100 -23 4 9 6 9 6 0 1 -7 8 -13 17 -13 9 0 12 5 8 13 -6
9 -5 9 7 0 13 -10 15 -6 15 33 -1 31 -4 43 -13 39 -11 -4 -17 33 -12 72 0 3
-7 10 -16 16 -15 8 -15 10 0 27 9 10 14 24 10 29 -3 6 -2 11 4 11 6 0 8 7 5
15 -4 10 0 15 15 15 12 0 21 -6 21 -15 0 -8 5 -15 12 -15 6 0 8 -3 5 -7 -4 -3
1 -15 10 -26 10 -11 12 -17 5 -13 -6 4 -2 -10 10 -30 12 -21 17 -34 10 -30 -9
6 -11 1 -8 -18 3 -15 0 -25 -6 -23 -6 1 -12 -8 -14 -20 -2 -14 1 -23 9 -23 8
0 7 -4 -3 -11 -11 -8 -12 -12 -2 -16 6 -2 10 -8 7 -12 -2 -5 9 -8 26 -9 20 0
27 3 23 11 -5 8 -3 8 7 0 17 -17 43 -17 33 0 -6 9 -5 9 7 0 24 -19 57 -12 62
14 2 13 0 26 -5 29 -5 3 -4 12 3 20 9 11 8 14 -8 14 -16 0 -18 6 -15 37 3 20
15 56 28 80 14 27 18 43 11 44 -7 0 -1 5 13 11 14 6 29 10 33 9 4 -1 3 8 -4
20 -8 15 -8 19 0 15 6 -4 11 -3 11 3 0 5 -5 13 -10 16 -8 5 -7 11 1 21 9 11 6
14 -17 15 -80 3 -120 -10 -110 -37 3 -7 -2 -15 -10 -18 -8 -3 -14 -1 -14 5 0
6 -4 7 -10 4 -5 -3 -7 0 -4 8 10 27 -20 42 -74 39 -45 -3 -52 -7 -52 -25 0
-22 -1 -22 -19 2 l-19 24 -338 -1 c-187 -1 -362 -2 -390 -2 -37 0 -56 -5 -73
-21 l-23 -22 7 22 c6 21 5 21 -149 21 -138 0 -191 -8 -154 -23 10 -4 10 -6 1
-6 -7 -1 -13 -6 -13 -12 0 -5 6 -7 13 -3 9 6 9 5 0 -7 -10 -12 -10 -18 0 -29
9 -10 9 -11 0 -6 -8 4 -13 2 -14 -6 0 -7 -5 -1 -11 15 -5 15 -13 25 -18 22 -5
-3 -7 3 -6 12 6 38 -19 45 -157 44 -73 0 -138 0 -144 -1 -7 0 -13 -11 -13 -25
0 -14 -4 -25 -8 -25 -5 0 -7 12 -4 28 l4 27 -61 -2 c-62 -1 -85 -8 -76 -23 3
-4 -2 -10 -10 -14 -8 -3 -15 -13 -15 -21 0 -9 -6 -23 -14 -31 -8 -7 -16 -19
-18 -26 -6 -18 -27 5 -58 65 -13 26 -31 47 -40 48 -49 3 -77 4 -96 1z m556
-32 c6 -11 8 -20 6 -20 -3 0 -10 9 -16 20 -6 11 -8 20 -6 20 3 0 10 -9 16 -20z
m-157 -49 c-2 -6 2 -11 7 -11 6 0 10 -7 10 -15 0 -8 6 -15 13 -15 9 0 9 -2 0
-8 -7 -4 -11 -31 -10 -67 1 -46 -2 -59 -13 -57 -11 3 -11 0 0 -13 12 -15 11
-15 -14 -4 -17 8 -25 18 -21 27 3 9 0 19 -7 24 -11 6 -10 8 0 8 8 0 10 5 6 12
-11 17 -12 48 -2 42 10 -7 10 -1 -2 30 -8 21 -6 27 12 37 17 9 18 13 7 21 -12
8 -11 9 1 5 8 -2 14 -10 13 -16z m181 -36 c-4 -9 0 -15 7 -15 10 0 10 -3 3 -8
-14 -9 -14 -43 0 -61 8 -12 8 -13 -2 -7 -9 6 -11 1 -8 -18 5 -28 -16 -51 -38
-43 -9 4 -13 15 -11 27 2 11 -1 20 -6 20 -6 0 -7 6 -2 13 4 6 8 32 8 57 0 57
10 73 35 60 11 -6 17 -17 14 -25z m476 1 c-5 -5 -4 -19 0 -32 5 -13 7 -24 4
-24 -2 0 4 -10 15 -22 18 -19 35 -24 102 -27 9 -1 16 -8 16 -16 0 -17 -13 -20
-23 -4 -3 6 -15 9 -25 6 -11 -3 -19 -2 -19 2 0 4 -10 7 -22 5 -13 -1 -29 -3
-35 -3 -7 -1 -13 -10 -13 -20 0 -11 -4 -23 -10 -26 -6 -4 -10 30 -9 94 1 83 3
98 14 88 7 -7 10 -16 5 -21z m589 10 c9 -10 8 -15 -2 -19 -8 -3 -13 3 -13 14
0 23 0 23 15 5z m151 3 c0 -5 -5 -7 -12 -3 -8 5 -9 1 -4 -12 5 -14 4 -16 -5
-7 -6 6 -8 16 -5 22 9 14 26 14 26 0z m-389 -42 c-10 -9 -11 -8 -5 6 3 10 9
15 12 12 3 -3 0 -11 -7 -18z m374 -101 c0 -15 -4 -21 -9 -16 -5 5 -6 16 -3 24
9 22 12 20 12 -8z"/>
</g>
</svg>
