<?xml version="1.0" standalone="no"?>
<!DOCTYPE svg PUBLIC "-//W3C//DTD SVG 20010904//EN"
 "http://www.w3.org/TR/2001/REC-SVG-20010904/DTD/svg10.dtd">
<svg version="1.0" xmlns="http://www.w3.org/2000/svg"
 width="1211.000000pt" height="1211.000000pt" viewBox="0 0 1211.000000 1211.000000"
 preserveAspectRatio="xMidYMid meet">
<metadata>
Created by potrace 1.11, written by Peter Selinger 2001-2013
</metadata>
<g transform="translate(0.000000,1211.000000) scale(0.100000,-0.100000)"
fill="#000000" stroke="none">
<path d="M5757 12099 c-2173 -103 -4135 -1387 -5114 -3344 -331 -661 -532
-1368 -610 -2145 -25 -248 -25 -863 0 -1110 85 -839 311 -1592 689 -2294 918
-1709 2576 -2868 4493 -3141 463 -65 1057 -73 1530 -19 960 109 1891 451 2692
991 653 440 1231 1023 1668 1683 1410 2128 1328 4924 -205 6965 -558 742
-1280 1350 -2100 1764 -788 399 -1581 608 -2472 651 -227 11 -326 11 -571 -1z
m614 -3706 c540 -1077 1393 -2778 1895 -3781 502 -1003 918 -1829 924 -1837 6
-7 30 -23 53 -34 l42 -21 -667 0 -667 0 -887 1778 c-488 977 -893 1784 -900
1792 -7 8 -460 910 -1007 2003 -548 1094 -1002 1996 -1009 2004 -7 9 -31 24
-53 34 -39 18 -26 19 627 19 l666 0 983 -1957z m-2513 1581 c68 -136 122 -248
120 -249 -4 -4 -300 134 -498 231 l-145 71 190 96 c105 53 195 96 200 96 6 1
66 -110 133 -245z m2213 -4489 c105 -226 208 -447 229 -492 l38 -82 -227 -283
c-125 -156 -485 -602 -800 -993 -316 -390 -610 -756 -655 -812 l-81 -102 -628
0 c-346 -1 -627 3 -625 7 2 5 269 340 593 746 1085 1359 1830 2290 1890 2364
32 40 62 69 66 65 5 -5 95 -193 200 -418z m3510 -2236 c118 -56 261 -124 319
-151 l105 -50 -145 -74 c-80 -41 -169 -85 -198 -98 l-52 -25 -125 249 c-69
138 -123 250 -121 250 2 0 100 -46 217 -101z"/>
</g>
</svg>
